<svg xmlns="http://www.w3.org/2000/svg" xmlns:xlink="http://www.w3.org/1999/xlink" version="1.1" width="1000" height="1000" viewBox="0 0 1000 1000" xml:space="preserve">
<desc>Created with Fabric.js 3.5.0</desc>
<defs>
</defs>
<rect x="0" y="0" width="100%" height="100%" fill="#ffffff"/>
<g transform="matrix(3.5511 0 0 3.5511 499.9953 499.9953)" id="117579">
<g style="" vector-effect="non-scaling-stroke">
		<g transform="matrix(2.81 0 0 2.81 -96.2201 -0.1434)">
<path style="stroke: none; stroke-width: 1; stroke-dasharray: none; stroke-linecap: butt; stroke-dashoffset: 0; stroke-linejoin: miter; stroke-miterlimit: 10; is-custom-font: none; font-file-url: none; fill: rgb(255,255,255); fill-rule: nonzero; opacity: 1;" transform=" translate(-10.809, -45)" d="M 1.48 29.91 h 18.657 v 60.01 H 1.48 V 29.91 z M 10.809 0.08 c 5.963 0 10.809 4.846 10.809 10.819 c 0 5.967 -4.846 10.813 -10.809 10.813 C 4.832 21.712 0 16.866 0 10.899 C 0 4.926 4.832 0.08 10.809 0.08" stroke-linecap="round"/>
</g>
		<g transform="matrix(2.81 0 0 2.81 44.5847 39.6799)">
<path style="stroke: none; stroke-width: 1; stroke-dasharray: none; stroke-linecap: butt; stroke-dashoffset: 0; stroke-linejoin: miter; stroke-miterlimit: 10; is-custom-font: none; font-file-url: none; fill: rgb(255,255,255); fill-rule: nonzero; opacity: 1;" transform=" translate(-60.9175, -59.172)" d="M 31.835 29.91 h 17.89 v 8.206 h 0.255 c 2.49 -4.72 8.576 -9.692 17.647 -9.692 C 86.514 28.424 90 40.849 90 57.007 V 89.92 H 71.357 V 60.737 c 0 -6.961 -0.121 -15.912 -9.692 -15.912 c -9.706 0 -11.187 7.587 -11.187 15.412 V 89.92 H 31.835 V 29.91 z" stroke-linecap="round"/>
</g>
</g>
</g>
</svg>